<svg width="154" height="69" viewBox="0 0 154 69" fill="none" xmlns="http://www.w3.org/2000/svg">
<g clip-path="url(#clip0_7572_306)">
<path d="M4 7.74366V61.2339H30.6067C30.6067 61.2339 49.1508 62.6169 48.7002 47.0088C48.7002 47.0088 49.2353 36.8601 39.7591 34.388C39.7591 34.388 36.253 33.2569 29.6267 37.0029C28.3284 37.7364 27.1119 38.5959 25.9432 39.5169C24.1099 40.9616 18.7227 44.1672 9.24643 41.6167C9.24643 41.6167 14.1746 40.6368 16.8499 36.2973C19.5253 31.9579 23.0454 30.1381 23.0454 30.1381C23.0454 30.1381 19.8069 28.3183 18.962 21.0392C18.962 21.0392 18.6804 17.1197 15.0195 14.88C15.0195 14.88 26.1206 14.6168 29.5028 24.1468C29.6548 24.5724 29.7675 25.0063 29.8745 25.4459C30.1899 26.7589 31.8401 31.3532 39.4211 30.8576C39.4211 30.8576 47.0078 29.9925 46.3629 19.4994C45.718 9.00631 34.6394 7.60368 27.9257 7.74366H4Z" fill="#ECEBE4"/>
</g>
<path d="M74.2311 61.525C67.8811 61.525 62.6311 60.05 58.4811 57.1C54.3811 54.1 52.1561 49.725 51.8061 43.975H69.5061C69.7561 47.025 71.1061 48.55 73.5561 48.55C74.4561 48.55 75.2061 48.35 75.8061 47.95C76.4561 47.5 76.7811 46.825 76.7811 45.925C76.7811 44.675 76.1061 43.675 74.7561 42.925C73.4061 42.125 71.3061 41.225 68.4561 40.225C65.0561 39.025 62.2311 37.85 59.9811 36.7C57.7811 35.55 55.8811 33.875 54.2811 31.675C52.6811 29.475 51.9061 26.65 51.9561 23.2C51.9561 19.75 52.8311 16.825 54.5811 14.425C56.3811 11.975 58.8061 10.125 61.8561 8.875C64.9561 7.625 68.4311 7 72.2811 7C78.7811 7 83.9311 8.5 87.7311 11.5C91.5811 14.5 93.6061 18.725 93.8061 24.175H75.8811C75.8311 22.675 75.4561 21.6 74.7561 20.95C74.0561 20.3 73.2061 19.975 72.2061 19.975C71.5061 19.975 70.9311 20.225 70.4811 20.725C70.0311 21.175 69.8061 21.825 69.8061 22.675C69.8061 23.875 70.4561 24.875 71.7561 25.675C73.1061 26.425 75.2311 27.35 78.1311 28.45C81.4811 29.7 84.2311 30.9 86.3811 32.05C88.5811 33.2 90.4811 34.8 92.0811 36.85C93.6811 38.9 94.4811 41.475 94.4811 44.575C94.4811 47.825 93.6811 50.75 92.0811 53.35C90.4811 55.9 88.1561 57.9 85.1061 59.35C82.0561 60.8 78.4311 61.525 74.2311 61.525ZM98.8311 34.375C98.8311 29.125 99.8811 24.45 101.981 20.35C104.131 16.25 107.181 13.075 111.131 10.825C115.081 8.525 119.731 7.375 125.081 7.375C129.681 7.375 133.781 8.25 137.381 10C141.031 11.7 143.981 14.125 146.231 17.275C148.531 20.425 150.056 24.1 150.806 28.3H133.256C132.456 26.55 131.306 25.2 129.806 24.25C128.356 23.25 126.681 22.75 124.781 22.75C121.981 22.75 119.756 23.8 118.106 25.9C116.506 28 115.706 30.825 115.706 34.375C115.706 37.925 116.506 40.75 118.106 42.85C119.756 44.95 121.981 46 124.781 46C126.681 46 128.356 45.525 129.806 44.575C131.306 43.575 132.456 42.2 133.256 40.45H150.806C150.056 44.65 148.531 48.325 146.231 51.475C143.981 54.625 141.031 57.075 137.381 58.825C133.781 60.525 129.681 61.375 125.081 61.375C119.731 61.375 115.081 60.25 111.131 58C107.181 55.7 104.131 52.5 101.981 48.4C99.8811 44.3 98.8311 39.625 98.8311 34.375Z" fill="#ECEBE4"/>
<defs>
<clipPath id="clip0_7572_306">
<rect width="44.7059" height="53.5294" fill="white" transform="translate(4 7.73535)"/>
</clipPath>
</defs>
</svg>
