<svg width="402" height="138" viewBox="0 0 402 138" fill="none" xmlns="http://www.w3.org/2000/svg">
<path d="M53.1804 41.5663C53.1804 37.0566 53.9404 33.155 55.4606 29.8614C57.0313 26.5172 59.1595 23.9836 61.8451 22.2608C64.5306 20.4874 67.5455 19.6006 70.8898 19.6006C73.6766 19.6006 76.0835 20.1833 78.1103 21.3488C80.1371 22.4635 81.6826 24.009 82.7467 25.9851V20.1327H99.544V63H82.7467V57.1475C81.6826 59.1237 80.1371 60.6945 78.1103 61.8599C76.0835 62.9747 73.6766 63.532 70.8898 63.532C67.5455 63.532 64.5306 62.6706 61.8451 60.9478C59.1595 59.1744 57.0313 56.6408 55.4606 53.3472C53.9404 50.003 53.1804 46.076 53.1804 41.5663ZM82.7467 41.5663C82.7467 39.2862 82.164 37.5127 80.9985 36.2459C79.8331 34.9792 78.3383 34.3458 76.5142 34.3458C74.6901 34.3458 73.1953 34.9792 72.0298 36.2459C70.8644 37.5127 70.2817 39.2862 70.2817 41.5663C70.2817 43.8465 70.8644 45.62 72.0298 46.8867C73.1953 48.1535 74.6901 48.7869 76.5142 48.7869C78.3383 48.7869 79.8331 48.1535 80.9985 46.8867C82.164 45.62 82.7467 43.8465 82.7467 41.5663ZM115.633 16.7124C112.695 16.7124 110.338 15.927 108.565 14.3562C106.791 12.7854 105.905 10.8093 105.905 8.42776C105.905 5.99557 106.791 3.99408 108.565 2.42329C110.338 0.80183 112.695 -0.00889961 115.633 -0.00889961C118.522 -0.00889961 120.853 0.80183 122.626 2.42329C124.399 3.99408 125.286 5.99557 125.286 8.42776C125.286 10.8093 124.399 12.7854 122.626 14.3562C120.853 15.927 118.522 16.7124 115.633 16.7124ZM123.994 20.1327V63H107.121V20.1327H123.994ZM173.114 41.1863C173.114 42.3517 173.038 43.4665 172.886 44.5306H145.752C146.005 48.2295 147.551 50.079 150.388 50.079C152.213 50.079 153.53 49.2429 154.341 47.5708H172.202C171.594 50.611 170.302 53.3472 168.326 55.7794C166.4 58.161 163.943 60.0611 160.953 61.4799C158.014 62.848 154.771 63.532 151.224 63.532C146.968 63.532 143.168 62.6453 139.824 60.8718C136.53 59.0984 133.946 56.5648 132.071 53.2712C130.247 49.927 129.335 46.0253 129.335 41.5663C129.335 37.1073 130.247 33.231 132.071 29.9374C133.946 26.5932 136.53 24.0343 139.824 22.2608C143.168 20.4874 146.968 19.6006 151.224 19.6006C155.481 19.6006 159.256 20.4874 162.549 22.2608C165.894 23.9836 168.478 26.4665 170.302 29.7094C172.177 32.9523 173.114 36.778 173.114 41.1863ZM156.013 37.158C156.013 35.7392 155.557 34.6751 154.645 33.9657C153.733 33.2057 152.593 32.8257 151.224 32.8257C148.235 32.8257 146.487 34.2698 145.98 37.158H156.013ZM212.419 63.532C205.984 63.532 200.664 62.0373 196.458 59.0477C192.303 56.0075 190.048 51.5738 189.694 45.7467H207.631C207.884 48.8376 209.252 50.383 211.735 50.383C212.647 50.383 213.407 50.1803 214.015 49.775C214.674 49.3189 215.003 48.6349 215.003 47.7228C215.003 46.456 214.319 45.4426 212.951 44.6826C211.583 43.8718 209.455 42.9598 206.567 41.9464C203.121 40.7303 200.258 39.5395 197.978 38.3741C195.749 37.2087 193.823 35.5112 192.202 33.2817C190.58 31.0522 189.795 28.1893 189.846 24.693C189.846 21.1968 190.732 18.2325 192.506 15.8003C194.33 13.3175 196.787 11.4427 199.878 10.1759C203.02 8.90913 206.541 8.27575 210.443 8.27575C217.03 8.27575 222.249 9.79586 226.1 12.8361C230.002 15.8763 232.054 20.158 232.257 25.6811H214.091C214.041 24.161 213.661 23.0716 212.951 22.4128C212.242 21.7541 211.381 21.4248 210.367 21.4248C209.658 21.4248 209.075 21.6781 208.619 22.1848C208.163 22.6409 207.935 23.2996 207.935 24.161C207.935 25.3771 208.594 26.3905 209.911 27.2012C211.279 27.9613 213.433 28.8987 216.372 30.0134C219.767 31.2802 222.553 32.4963 224.732 33.6617C226.962 34.8271 228.887 36.4486 230.509 38.5261C232.13 40.6036 232.941 43.2131 232.941 46.3547C232.941 49.6483 232.13 52.6125 230.509 55.2474C228.887 57.8316 226.531 59.8584 223.44 61.3279C220.349 62.7973 216.676 63.532 212.419 63.532ZM265.547 48.6349V63H259.163C247.407 63 241.53 57.1475 241.53 45.4426V34.1938H236.209V20.1327H241.53V9.79586H258.403V20.1327H265.395V34.1938H258.403V45.7467C258.403 46.7601 258.631 47.4948 259.087 47.9508C259.594 48.4069 260.404 48.6349 261.519 48.6349H265.547ZM313.473 41.1863C313.473 42.3517 313.397 43.4665 313.245 44.5306H286.111C286.364 48.2295 287.909 50.079 290.747 50.079C292.571 50.079 293.889 49.2429 294.699 47.5708H312.561C311.953 50.611 310.66 53.3472 308.684 55.7794C306.759 58.161 304.301 60.0611 301.312 61.4799C298.373 62.848 295.13 63.532 291.583 63.532C287.327 63.532 283.526 62.6453 280.182 60.8718C276.889 59.0984 274.304 56.5648 272.43 53.2712C270.605 49.927 269.693 46.0253 269.693 41.5663C269.693 37.1073 270.605 33.231 272.43 29.9374C274.304 26.5932 276.889 24.0343 280.182 22.2608C283.526 20.4874 287.327 19.6006 291.583 19.6006C295.839 19.6006 299.614 20.4874 302.908 22.2608C306.252 23.9836 308.836 26.4665 310.66 29.7094C312.535 32.9523 313.473 36.778 313.473 41.1863ZM296.371 37.158C296.371 35.7392 295.915 34.6751 295.003 33.9657C294.091 33.2057 292.951 32.8257 291.583 32.8257C288.593 32.8257 286.845 34.2698 286.339 37.158H296.371ZM351.948 30.0894V43.9985H316.529V30.0894H351.948ZM2.28018 104.018C2.28018 98.6975 3.34426 93.9598 5.47243 89.8048C7.65126 85.6498 10.7422 82.4322 14.7451 80.152C18.7481 77.8212 23.4605 76.6558 28.8822 76.6558C33.5439 76.6558 37.6989 77.5425 41.3472 79.316C45.0462 81.0388 48.0357 83.4963 50.3159 86.6886C52.6468 89.8808 54.1922 93.6051 54.9523 97.8614H37.1669C36.3562 96.088 35.1907 94.7198 33.6706 93.7571C32.2012 92.7437 30.5037 92.237 28.5782 92.237C25.7407 92.237 23.4858 93.3011 21.8137 95.4292C20.1922 97.5574 19.3815 100.42 19.3815 104.018C19.3815 107.616 20.1922 110.478 21.8137 112.607C23.4858 114.735 25.7407 115.799 28.5782 115.799C30.5037 115.799 32.2012 115.317 33.6706 114.355C35.1907 113.341 36.3562 111.948 37.1669 110.174H54.9523C54.1922 114.431 52.6468 118.155 50.3159 121.347C48.0357 124.539 45.0462 127.022 41.3472 128.796C37.6989 130.519 33.5439 131.38 28.8822 131.38C23.4605 131.38 18.7481 130.24 14.7451 127.96C10.7422 125.629 7.65126 122.386 5.47243 118.231C3.34426 114.076 2.28018 109.338 2.28018 104.018ZM58.7472 109.566C58.7472 105.057 59.5073 101.155 61.0274 97.8614C62.5982 94.5172 64.7264 91.9836 67.4119 90.2608C70.0974 88.4874 73.1123 87.6006 76.4566 87.6006C79.2435 87.6006 81.6503 88.1833 83.6772 89.3488C85.704 90.4635 87.2494 92.009 88.3135 93.9851V88.1327H105.111V131H88.3135V125.148C87.2494 127.124 85.704 128.694 83.6772 129.86C81.6503 130.975 79.2435 131.532 76.4566 131.532C73.1123 131.532 70.0974 130.671 67.4119 128.948C64.7264 127.174 62.5982 124.641 61.0274 121.347C59.5073 118.003 58.7472 114.076 58.7472 109.566ZM88.3135 109.566C88.3135 107.286 87.7308 105.513 86.5654 104.246C85.4 102.979 83.9052 102.346 82.081 102.346C80.2569 102.346 78.7621 102.979 77.5967 104.246C76.4313 105.513 75.8486 107.286 75.8486 109.566C75.8486 111.847 76.4313 113.62 77.5967 114.887C78.7621 116.154 80.2569 116.787 82.081 116.787C83.9052 116.787 85.4 116.154 86.5654 114.887C87.7308 113.62 88.3135 111.847 88.3135 109.566ZM139.366 116.635V131H132.981C121.226 131 115.348 125.148 115.348 113.443V102.194H110.027V88.1327H115.348V77.7959H132.221V88.1327H139.214V102.194H132.221V113.747C132.221 114.76 132.449 115.495 132.905 115.951C133.412 116.407 134.223 116.635 135.337 116.635H139.366ZM175.814 87.8286C180.729 87.8286 184.555 89.4754 187.291 92.769C190.078 96.0626 191.471 100.522 191.471 106.146V131H174.674V108.274C174.674 106.247 174.117 104.651 173.002 103.486C171.938 102.27 170.494 101.662 168.67 101.662C166.795 101.662 165.325 102.27 164.261 103.486C163.197 104.651 162.665 106.247 162.665 108.274V131H145.792V74.7556H162.665V94.6692C163.983 92.6424 165.731 90.9956 167.91 89.7288C170.139 88.462 172.774 87.8286 175.814 87.8286ZM240.287 109.186C240.287 110.352 240.211 111.466 240.059 112.531H212.925C213.179 116.23 214.724 118.079 217.562 118.079C219.386 118.079 220.703 117.243 221.514 115.571H239.375C238.767 118.611 237.475 121.347 235.499 123.779C233.573 126.161 231.116 128.061 228.126 129.48C225.187 130.848 221.945 131.532 218.398 131.532C214.141 131.532 210.341 130.645 206.997 128.872C203.703 127.098 201.119 124.565 199.244 121.271C197.42 117.927 196.508 114.025 196.508 109.566C196.508 105.107 197.42 101.231 199.244 97.9374C201.119 94.5932 203.703 92.0343 206.997 90.2608C210.341 88.4874 214.141 87.6006 218.398 87.6006C222.654 87.6006 226.429 88.4874 229.723 90.2608C233.067 91.9836 235.651 94.4665 237.475 97.7094C239.35 100.952 240.287 104.778 240.287 109.186ZM223.186 105.158C223.186 103.739 222.73 102.675 221.818 101.966C220.906 101.206 219.766 100.826 218.398 100.826C215.408 100.826 213.66 102.27 213.153 105.158H223.186ZM262.497 96.0373C264.22 93.5544 266.323 91.5783 268.806 90.1088C271.288 88.5887 273.873 87.8286 276.558 87.8286V105.842H271.77C268.578 105.842 266.221 106.399 264.701 107.514C263.232 108.629 262.497 110.605 262.497 113.443V131H245.624V88.1327H262.497V96.0373ZM289.616 84.7124C286.677 84.7124 284.321 83.927 282.547 82.3562C280.774 80.7854 279.887 78.8093 279.887 76.4278C279.887 73.9956 280.774 71.9941 282.547 70.4233C284.321 68.8018 286.677 67.9911 289.616 67.9911C292.504 67.9911 294.835 68.8018 296.608 70.4233C298.382 71.9941 299.269 73.9956 299.269 76.4278C299.269 78.8093 298.382 80.7854 296.608 82.3562C294.835 83.927 292.504 84.7124 289.616 84.7124ZM297.976 88.1327V131H281.103V88.1327H297.976ZM335.62 87.8286C340.535 87.8286 344.36 89.4754 347.096 92.769C349.883 96.0626 351.277 100.522 351.277 106.146V131H334.479V108.274C334.479 106.247 333.922 104.651 332.807 103.486C331.743 102.27 330.299 101.662 328.475 101.662C326.6 101.662 325.131 102.27 324.067 103.486C323.003 104.651 322.47 106.247 322.47 108.274V131H305.597V88.1327H322.47V94.6692C323.788 92.6424 325.536 90.9956 327.715 89.7288C329.944 88.462 332.579 87.8286 335.62 87.8286ZM400.093 109.186C400.093 110.352 400.017 111.466 399.865 112.531H372.731C372.984 116.23 374.529 118.079 377.367 118.079C379.191 118.079 380.509 117.243 381.319 115.571H399.181C398.573 118.611 397.28 121.347 395.304 123.779C393.379 126.161 390.921 128.061 387.932 129.48C384.993 130.848 381.75 131.532 378.203 131.532C373.947 131.532 370.146 130.645 366.802 128.872C363.509 127.098 360.924 124.565 359.05 121.271C357.225 117.927 356.313 114.025 356.313 109.566C356.313 105.107 357.225 101.231 359.05 97.9374C360.924 94.5932 363.509 92.0343 366.802 90.2608C370.146 88.4874 373.947 87.6006 378.203 87.6006C382.459 87.6006 386.234 88.4874 389.528 90.2608C392.872 91.9836 395.456 94.4665 397.28 97.7094C399.155 100.952 400.093 104.778 400.093 109.186ZM382.991 105.158C382.991 103.739 382.535 102.675 381.623 101.966C380.711 101.206 379.571 100.826 378.203 100.826C375.213 100.826 373.465 102.27 372.959 105.158H382.991Z" fill="#ECEBE4"/>
<g clip-path="url(#clip0_7572_312)">
<path d="M4.75049 8.54013V62.536H31.6087C31.6087 62.536 50.3281 63.9321 49.8733 48.1765C49.8733 48.1765 50.4134 37.9318 40.8476 35.4363C40.8476 35.4363 37.3084 34.2946 30.6194 38.0759C29.3089 38.8164 28.0809 39.684 26.9011 40.6138C25.0505 42.0721 19.6123 45.308 10.0465 42.7334C10.0465 42.7334 15.0213 41.7442 17.7219 37.3637C20.4225 32.9833 23.9759 31.1463 23.9759 31.1463C23.9759 31.1463 20.7068 29.3093 19.854 21.9614C19.854 21.9614 19.5697 18.0048 15.8741 15.7439C15.8741 15.7439 27.0802 15.4783 30.4943 25.0984C30.6479 25.528 30.7616 25.966 30.8696 26.4097C31.188 27.7352 32.8538 32.3728 40.5065 31.8726C40.5065 31.8726 48.1648 30.9993 47.5138 20.407C46.8628 9.81471 35.6795 8.39882 28.9024 8.54013H4.75049Z" fill="#ECEBE4"/>
</g>
<defs>
<clipPath id="clip0_7572_312">
<rect width="45.1285" height="54.0355" fill="white" transform="translate(4.75049 8.53162)"/>
</clipPath>
</defs>
</svg>
