<svg width="69" height="69" viewBox="0 0 69 69" fill="none" xmlns="http://www.w3.org/2000/svg">
<path d="M34.5 0C53.5538 6.1849e-06 69 15.4462 69 34.5C69 53.5538 53.5538 69 34.5 69C15.4462 69 6.18527e-06 53.5538 0 34.5C0 15.4462 15.4462 0 34.5 0ZM29.6963 22.9023L11.2607 11.2607L22.9023 29.6963L1.63379 34.5L22.9023 39.3037L11.2607 57.7402L29.6963 46.0986L34.5 67.3662L39.3037 46.0986L57.7402 57.7402L46.0986 39.3037L67.3662 34.5L46.0986 29.6963L57.7402 11.2607L39.3037 22.9023L34.5 1.63379L29.6963 22.9023Z" fill="#D9D9D9"/>
</svg>
