<svg width="64" height="64" viewBox="0 0 64 64" fill="none" xmlns="http://www.w3.org/2000/svg">
<path d="M24 39.9999L16.0853 47.9146C15.2044 48.7953 14.0822 49.395 12.8605 49.638C11.6388 49.8809 10.3725 49.7562 9.22173 49.2795C8.07093 48.8029 7.08728 47.9957 6.39516 46.9601C5.70304 45.9245 5.33352 44.7069 5.33333 43.4613V39.9999L8.952 21.9093C9.43531 19.4912 10.7415 17.3153 12.6483 15.7517C14.5551 14.1881 16.9448 13.3335 19.4107 13.3333H44.5893C47.0552 13.3335 49.4449 14.1881 51.3517 15.7517C53.2585 17.3153 54.5647 19.4912 55.048 21.9093L58.6667 39.9999V43.4586C58.6665 44.7042 58.297 45.9218 57.6048 46.9574C56.9127 47.993 55.9291 48.8002 54.7783 49.2769C53.6274 49.7535 52.3612 49.8782 51.1395 49.6353C49.9178 49.3923 48.7955 48.7926 47.9147 47.9119L40 39.9999H24Z" stroke="#ECEBE4" stroke-width="5" stroke-linecap="round" stroke-linejoin="round"/>
<path d="M24 13.3333L26.6667 18.6666H37.3333L40 13.3333" fill="#ECEBE4"/>
<path d="M24 13.3333L26.6667 18.6666H37.3333L40 13.3333" stroke="#ECEBE4" stroke-width="5" stroke-linecap="round" stroke-linejoin="round"/>
</svg>
