<svg width="64" height="64" viewBox="0 0 64 64" fill="none" xmlns="http://www.w3.org/2000/svg">
<path d="M40.0003 37.5002L40.2474 37.512C40.8195 37.5688 41.3578 37.8217 41.7679 38.2317L49.682 46.1438C50.2132 46.6749 50.8905 47.0363 51.6273 47.1829C52.364 47.3294 53.1276 47.2545 53.8216 46.967C54.5156 46.6796 55.1093 46.1932 55.5267 45.5686C55.892 45.022 56.1082 44.391 56.1566 43.7385L56.1663 43.4583V40.2463L52.597 22.3997H52.596C52.226 20.5484 51.2267 18.8819 49.7669 17.6848C48.3984 16.5626 46.7045 15.9176 44.9427 15.8411L44.5892 15.8333H19.4105C17.5227 15.8336 15.6935 16.4879 14.2337 17.6848C12.7738 18.8819 11.7737 20.5483 11.4036 22.3997L7.83333 40.2463V43.4612L7.84407 43.7415C7.89249 44.3938 8.10877 45.0241 8.47395 45.5706C8.89132 46.1951 9.48411 46.6825 10.1781 46.97C10.8721 47.2574 11.6366 47.3323 12.3734 47.1858C13.1099 47.0392 13.7866 46.6777 14.3177 46.1467L22.2318 38.2317C22.7006 37.7628 23.3373 37.5002 24.0003 37.5002H40.0003ZM61.1663 43.4592C61.166 45.1992 60.6497 46.9003 59.6829 48.3469C58.7161 49.7934 57.3421 50.9204 55.7347 51.5862C54.1271 52.252 52.3583 52.4265 50.6517 52.0872C49.0518 51.769 47.5745 51.0124 46.3822 49.9055L46.1468 49.6799L38.9652 42.5002H25.0355L17.8529 49.6819V49.6829C16.6224 50.913 15.0545 51.7507 13.348 52.0901C11.6414 52.4294 9.87248 52.2549 8.26497 51.5891C6.65745 50.9233 5.28352 49.7955 4.31673 48.3489C3.34997 46.9022 2.8336 45.2011 2.83333 43.4612V40.0002C2.83333 39.8357 2.84991 39.6713 2.88216 39.51L6.50032 21.4192L6.62434 20.8635C7.30162 18.102 8.85626 15.628 11.0628 13.8186C13.4165 11.8886 16.3666 10.8336 19.4105 10.8333H44.5892C47.633 10.8336 50.5831 11.8886 52.9368 13.8186C55.2905 15.7486 56.9027 18.4344 57.4993 21.4192L61.1185 39.51C61.1507 39.6713 61.1663 39.8358 61.1663 40.0002V43.4592Z" fill="#ECEBE4"/>
<path d="M24 13.3333L26.6667 18.6666H37.3333L40 13.3333" fill="#ECEBE4"/>
<path d="M37.7637 12.2151C38.3811 10.9802 39.8832 10.4795 41.1182 11.097C42.3531 11.7144 42.8538 13.2165 42.2363 14.4515L39.5693 19.7845C39.1458 20.6314 38.2799 21.1663 37.333 21.1663H26.667C25.72 21.1663 24.8541 20.6314 24.4307 19.7845L21.7637 14.4515C21.1462 13.2165 21.6469 11.7144 22.8818 11.097C24.1168 10.4795 25.6188 10.9802 26.2363 12.2151L28.2119 16.1663H35.7881L37.7637 12.2151Z" fill="#ECEBE4"/>
</svg>
