<svg width="64" height="64" viewBox="0 0 64 64" fill="none" xmlns="http://www.w3.org/2000/svg">
<path d="M16 48.0001C21.891 48.0001 26.6667 43.2245 26.6667 37.3334C26.6667 31.4424 21.891 26.6667 16 26.6667C10.109 26.6667 5.33333 31.4424 5.33333 37.3334C5.33333 43.2245 10.109 48.0001 16 48.0001Z" stroke="#ECEBE4" stroke-width="5" stroke-linecap="round" stroke-linejoin="round"/>
<path d="M48 48.0001C53.891 48.0001 58.6666 43.2245 58.6666 37.3334C58.6666 31.4424 53.891 26.6667 48 26.6667C42.1089 26.6667 37.3333 31.4424 37.3333 37.3334C37.3333 43.2245 42.1089 48.0001 48 48.0001Z" stroke="#ECEBE4" stroke-width="5" stroke-linecap="round" stroke-linejoin="round"/>
<path d="M26.6667 37.3333L27.2293 37.0507C28.7106 36.31 30.3439 35.9244 32 35.9244C33.6561 35.9244 35.2894 36.31 36.7707 37.0507L37.3333 37.3333M50.6667 16L58.2347 33.6613C58.5195 34.3253 58.6665 35.0402 58.6667 35.7627V37.3333M13.3333 16L5.76533 33.6613C5.48084 34.3245 5.33388 35.0384 5.33333 35.76V37.3333" stroke="#ECEBE4" stroke-width="5" stroke-linecap="round" stroke-linejoin="round"/>
</svg>
