<svg width="64" height="64" viewBox="0 0 64 64" fill="none" xmlns="http://www.w3.org/2000/svg">
<path d="M24.1663 37.3337C24.1663 32.8235 20.5105 29.1669 16.0003 29.1667C11.49 29.1667 7.83333 32.8234 7.83333 37.3337C7.8335 41.8439 11.4901 45.4998 16.0003 45.4998C20.5104 45.4996 24.1662 41.8438 24.1663 37.3337ZM29.1663 37.3337C29.1662 44.6052 23.2718 50.4996 16.0003 50.4998C8.72868 50.4998 2.8335 44.6053 2.83333 37.3337C2.83333 30.062 8.72857 24.1667 16.0003 24.1667C23.2719 24.1669 29.1663 30.0621 29.1663 37.3337Z" fill="#ECEBE4"/>
<path d="M56.1663 37.3337C56.1663 32.8235 52.5105 29.1669 48.0003 29.1667C43.49 29.1667 39.8333 32.8234 39.8333 37.3337C39.8335 41.8439 43.4901 45.4998 48.0003 45.4998C52.5104 45.4996 56.1661 41.8438 56.1663 37.3337ZM61.1663 37.3337C61.1661 44.6052 55.2718 50.4996 48.0003 50.4998C40.7287 50.4998 34.8335 44.6053 34.8333 37.3337C34.8333 30.062 40.7286 24.1667 48.0003 24.1667C55.2719 24.1669 61.1663 30.0621 61.1663 37.3337Z" fill="#ECEBE4"/>
<path d="M2.83333 37.3331V35.7579L2.84407 35.3614C2.89162 34.4377 3.1027 33.5288 3.46809 32.6768H3.46712L11.0355 15.0157C11.5793 13.7466 13.0487 13.1585 14.3177 13.7022C15.5867 14.246 16.1748 15.7154 15.6312 16.9844L8.06282 34.6465V34.6475C7.91182 34.9996 7.83364 35.3786 7.83333 35.7618V37.3331C7.83333 38.7138 6.71404 39.8331 5.33333 39.8331C3.95262 39.8331 2.83333 38.7138 2.83333 37.3331ZM32.0003 33.4249C33.9168 33.4249 35.8087 33.8428 37.5443 34.6485L37.889 34.8145L37.8929 34.8165L38.4554 35.0997C39.6892 35.7195 40.1875 37.2223 39.5677 38.4561C38.9479 39.6897 37.4449 40.1871 36.2113 39.5674L35.6527 39.2862V39.2872C34.5187 38.7201 33.2682 38.4249 32.0003 38.4249C30.7324 38.4249 29.4811 38.7201 28.347 39.2872L28.346 39.2862L27.7894 39.5674C26.5558 40.1872 25.0529 39.6895 24.4329 38.4561C23.8132 37.2224 24.3106 35.7195 25.5443 35.0997L26.1068 34.8165L26.1116 34.8145C27.9399 33.9004 29.9562 33.4249 32.0003 33.4249ZM56.1663 37.3331V35.7637L56.1517 35.4766C56.1226 35.1915 56.0503 34.912 55.9368 34.6475V34.6465L48.3685 16.9844C47.8249 15.7154 48.413 14.246 49.682 13.7022C50.9511 13.1584 52.4204 13.7466 52.9642 15.0157L60.5325 32.6758L60.68 33.045C61.0015 33.9136 61.1661 34.8335 61.1663 35.7618V37.3331C61.1663 38.7138 60.0471 39.8331 58.6663 39.8331C57.2858 39.8329 56.1663 38.7137 56.1663 37.3331Z" fill="#ECEBE4"/>
</svg>
