<svg width="64" height="64" viewBox="0 0 64 64" fill="none" xmlns="http://www.w3.org/2000/svg">
<path fill-rule="evenodd" clip-rule="evenodd" d="M25.144 23.9175H35.048V28.8508C36.4747 26.0135 40.1334 23.4642 45.6294 23.4642C56.1654 23.4642 58.6667 29.1122 58.6667 39.4748V58.6668H48V41.8348C48 35.9335 46.5734 32.6055 42.9414 32.6055C37.904 32.6055 35.8107 36.1922 35.8107 41.8322V58.6668H25.144V23.9175ZM6.85337 58.2135H17.52V23.4642H6.85337V58.2135ZM19.048 12.1335C19.0484 13.0276 18.8711 13.9128 18.5264 14.7377C18.1817 15.5627 17.6764 16.3109 17.04 16.9388C16.4017 17.5738 15.6446 18.0768 14.8118 18.4191C13.9791 18.7613 13.087 18.9361 12.1867 18.9335C10.3723 18.9294 8.63181 18.2143 7.33871 16.9415C6.70484 16.3112 6.20146 15.5622 5.85736 14.7371C5.51327 13.9121 5.33521 13.0274 5.33337 12.1335C5.33337 10.3282 6.05337 8.60017 7.34137 7.3255C8.63125 6.04785 10.3738 5.33183 12.1894 5.3335C14.008 5.3335 15.752 6.05083 17.04 7.3255C18.328 8.60017 19.048 10.3282 19.048 12.1335Z" fill="#ECEBE4"/>
</svg>
