<svg width="64" height="64" viewBox="0 0 64 64" fill="none" xmlns="http://www.w3.org/2000/svg">
<path d="M29.333 47.9998V10.6667C29.333 9.19399 30.5272 7.99976 32 7.99976C33.4728 7.99976 34.667 9.19399 34.667 10.6667V47.9998C34.667 49.4725 33.4728 50.6667 32 50.6667C30.5272 50.6667 29.333 49.4725 29.333 47.9998Z" fill="#ECEBE4"/>
<path d="M48 18.7118C47.9999 16.9734 47.4336 15.2823 46.3867 13.8944C45.3399 12.5067 43.8696 11.4981 42.1982 11.0204L34.667 8.86806V16.6552L47.999 20.4647L48 20.4657V18.7118ZM53.333 20.4628L53.3242 20.7714C53.2829 21.4907 53.0965 22.1957 52.7744 22.8427C52.4063 23.5819 51.8711 24.2252 51.2119 24.7226C50.5527 25.2199 49.7874 25.5578 48.9756 25.7089C48.1639 25.8599 47.328 25.8196 46.5342 25.5927L29.333 20.6776V8.86904C29.3328 8.04378 29.5248 7.2299 29.8926 6.49111C30.2606 5.75185 30.7949 5.10766 31.4541 4.61025C32.1134 4.11282 32.8795 3.77494 33.6914 3.62392C34.5033 3.47292 35.3398 3.51302 36.1338 3.74013L36.1328 3.74111L43.6631 5.8915C46.4488 6.68752 48.8998 8.36955 50.6445 10.6825C52.3893 12.9956 53.333 15.8145 53.333 18.7118V20.4628Z" fill="#ECEBE4"/>
<path d="M29.333 47.9998C29.333 47.2582 29.1847 46.8514 29.0566 46.6277C28.9345 46.4144 28.744 46.2138 28.3906 46.0232C27.5641 45.5774 26.1408 45.3337 24 45.3337C21.8592 45.3337 20.4359 45.5774 19.6094 46.0232C19.256 46.2138 19.0655 46.4144 18.9434 46.6277C18.8153 46.8514 18.667 47.2582 18.667 47.9998C18.667 49.4142 19.2284 50.7711 20.2285 51.7712C21.2287 52.7714 22.5855 53.3337 24 53.3337C25.4145 53.3337 26.7713 52.7714 27.7715 51.7712C28.7716 50.7711 29.333 49.4142 29.333 47.9998ZM34.667 47.9998C34.667 50.8287 33.5424 53.5423 31.542 55.5427C29.5416 57.5429 26.8288 58.6667 24 58.6667C21.1712 58.6667 18.4584 57.5429 16.458 55.5427C14.4576 53.5423 13.333 50.8287 13.333 47.9998C13.3331 46.5325 13.6331 45.1687 14.3145 43.9783C15.0019 42.7773 15.9829 41.9202 17.0771 41.3298C19.146 40.2137 21.7224 39.9998 24 39.9998C26.2776 39.9998 28.854 40.2137 30.9229 41.3298C32.0171 41.9202 32.9981 42.7773 33.6855 43.9783C34.3669 45.1687 34.6669 46.5325 34.667 47.9998Z" fill="#ECEBE4"/>
</svg>
