<svg width="64" height="64" viewBox="0 0 64 64" fill="none" xmlns="http://www.w3.org/2000/svg">
<path d="M32 10.6667V48.0001" stroke="#ECEBE4" stroke-width="5.33333" stroke-linecap="round" stroke-linejoin="round"/>
<path d="M50.6667 20.464V18.712C50.6666 16.3941 49.9116 14.1393 48.5158 12.2888C47.12 10.4383 45.1594 9.09283 42.9307 8.45599L35.4 6.30399C35.003 6.19043 34.585 6.17062 34.179 6.24614C33.7731 6.32165 33.3902 6.49041 33.0605 6.73912C32.7309 6.98784 32.4635 7.30971 32.2795 7.67937C32.0954 8.04903 31.9998 8.45638 32 8.86932V18.6667L47.2667 23.0293C47.6637 23.1429 48.0817 23.1627 48.4876 23.0872C48.8936 23.0117 49.2765 22.8429 49.6061 22.5942C49.9358 22.3455 50.2031 22.0236 50.3872 21.6539C50.5712 21.2843 50.6669 20.8769 50.6667 20.464Z" stroke="#ECEBE4" stroke-width="5.33333"/>
<path d="M32 48.0001C32 50.1218 31.1571 52.1566 29.6569 53.6569C28.1566 55.1572 26.1217 56.0001 24 56.0001C21.8783 56.0001 19.8434 55.1572 18.3431 53.6569C16.8429 52.1566 16 50.1218 16 48.0001C16 43.5814 19.5813 42.6667 24 42.6667C28.4187 42.6667 32 43.5814 32 48.0001Z" stroke="#ECEBE4" stroke-width="5.33333" stroke-linecap="round" stroke-linejoin="round"/>
</svg>
