<svg width="24" height="24" viewBox="0 0 24 24" fill="none" xmlns="http://www.w3.org/2000/svg">
<g clip-path="url(#clip0_7532_2)">
<path fill-rule="evenodd" clip-rule="evenodd" d="M24 24H0V0H24V24ZM19.0505 10.1725V8.31113C18.7439 8.17463 16.9884 7.67245 15.6015 8.20167C13.6037 8.96395 13.6755 11.2604 14.4336 12.1616C15.4158 13.3294 17.8593 13.7648 17.4594 14.9109C17.2524 15.5045 16.2858 15.6078 15.4336 15.4085C14.64 15.223 13.95 14.7529 13.95 14.7529V16.7238C13.95 16.7238 14.632 17.104 15.4691 17.1945C16.5422 17.3104 17.8874 17.0915 18.5612 16.4925C19.7608 15.4263 19.945 13.0642 17.6718 11.9674C15.7801 11.0548 15.8113 10.7943 15.8245 10.3261C15.8423 9.69914 17.1588 9.31317 19.0505 10.1725ZM8.84953 4.94883C10.4235 5.00358 12.7365 5.72897 12.7365 8.82211C12.7365 11.9153 9.90647 12.9302 7.32417 12.7091V17.0887H5.40047V4.98984C5.40047 4.98984 7.27556 4.89408 8.84953 4.94883ZM9.34903 10.793C10.1785 10.4903 10.7177 9.83963 10.7177 8.82891C10.7177 7.7573 10.169 7.03162 9.32986 6.82664C8.42114 6.60459 7.32413 6.73547 7.32413 6.73547V10.9563C7.32413 10.9563 8.84264 10.9777 9.34903 10.793Z" fill="#2E2C2F"/>
</g>
<defs>
<clipPath id="clip0_7532_2">
<rect width="24" height="24" fill="white"/>
</clipPath>
</defs>
</svg>
