<svg width="24" height="24" viewBox="0 0 24 24" fill="none" xmlns="http://www.w3.org/2000/svg">
<path d="M6 4V20L20 12L6 4Z" fill="#2E2C2F"/>
<path d="M5.49805 3.13485C5.80634 2.956 6.18663 2.95509 6.49609 3.13192L20.4961 11.1319C20.8077 11.31 21 11.6412 21 12.0001C21 12.3589 20.8077 12.6902 20.4961 12.8682L6.49609 20.8682C6.18663 21.0451 5.80634 21.0442 5.49805 20.8653C5.18973 20.6864 5 20.3566 5 20.0001V4.00009L5.00879 3.86825C5.04924 3.56379 5.22818 3.29146 5.49805 3.13485ZM7 18.2765L17.9844 12.0001L7 5.72274V18.2765Z" fill="#2E2C2F"/>
</svg>
