<svg width="64" height="64" viewBox="0 0 64 64" fill="none" xmlns="http://www.w3.org/2000/svg">
<path d="M51.7075 30.7625H48.25C48.1837 30.7625 48.1201 30.7361 48.0732 30.6892C48.0263 30.6423 48 30.5788 48 30.5125V20.8574C48 19.5692 47.4882 18.3336 46.5773 17.4227C45.6663 16.5117 44.4308 15.9999 43.1425 15.9999H33.4875C33.4212 15.9999 33.3576 15.9736 33.3107 15.9267C33.2638 15.8798 33.2375 15.8163 33.2375 15.7499V12.2924C33.2375 8.89995 30.55 6.05995 27.1575 6.0012C26.3356 5.98676 25.519 6.13615 24.7554 6.44067C23.9918 6.74518 23.2965 7.19871 22.71 7.7748C22.1236 8.35089 21.6578 9.038 21.3397 9.79604C21.0216 10.5541 20.8577 11.3679 20.8575 12.1899V15.7499C20.8575 15.8163 20.8312 15.8798 20.7843 15.9267C20.7374 15.9736 20.6738 15.9999 20.6075 15.9999H10.9525C9.64023 16.0039 8.38284 16.527 7.45492 17.4549C6.52701 18.3828 6.00396 19.6402 6 20.9524V29.75C6 29.8163 6.02634 29.8798 6.07322 29.9267C6.12011 29.9736 6.1837 30 6.25 30H9.61375C13.285 30 16.3238 33.185 16.375 36.8562C16.4275 40.59 13.4362 44 9.71375 44H6.25C6.1837 44 6.12011 44.0263 6.07322 44.0732C6.02634 44.1201 6 44.1836 6 44.25V53.0475C6.00396 54.3597 6.52701 55.6171 7.45492 56.545C8.38284 57.4729 9.64023 57.996 10.9525 58H19.75C19.8163 58 19.8799 57.9736 19.9268 57.9267C19.9737 57.8798 20 57.8163 20 57.75V55.1337C20 51.3487 23.0938 48.09 26.875 48.0012C30.6375 47.9137 34 50.54 34 54.2862V57.75C34 57.8163 34.0263 57.8798 34.0732 57.9267C34.1201 57.9736 34.1837 58 34.25 58H43.1425C44.4308 58 45.6663 57.4882 46.5773 56.5772C47.4882 55.6663 48 54.4307 48 53.1425V43.3925C48 43.3261 48.0263 43.2626 48.0732 43.2157C48.1201 43.1688 48.1837 43.1425 48.25 43.1425H51.81C55.2638 43.1425 58 40.3087 58 36.8424C58 33.3762 55.1 30.7625 51.7075 30.7625Z" stroke="#ECEBE4" stroke-width="5" stroke-linecap="round" stroke-linejoin="round"/>
</svg>
