<svg width="64" height="64" viewBox="0 0 64 64" fill="none" xmlns="http://www.w3.org/2000/svg">
<path d="M23.3574 15.7504C23.3573 16.4796 23.0674 17.179 22.5518 17.6947C22.036 18.2103 21.3367 18.5004 20.6074 18.5004H10.96L10.7168 18.5131C10.1544 18.5705 9.62587 18.8198 9.22266 19.223C8.76183 19.6839 8.50197 20.3085 8.5 20.9603V27.5004H9.61328C14.7404 27.5004 18.8059 31.8739 18.875 36.8216C18.9443 41.768 15.0055 46.5003 9.71387 46.5004H8.5V53.0404L8.5127 53.2826C8.56998 53.8452 8.81927 54.3743 9.22266 54.7777C9.68355 55.2385 10.3082 55.4984 10.96 55.5004H17.5V55.1341C17.5 50.0335 21.6359 45.6239 26.8164 45.5023L27.2686 45.5013C31.939 45.6053 36.5 48.9877 36.5 54.2865V55.5004H43.1426C43.7677 55.5003 44.3675 55.2519 44.8096 54.8099C45.2516 54.3679 45.4999 53.768 45.5 53.1429V43.3929C45.5 42.6636 45.7899 41.9634 46.3057 41.4476L46.5068 41.265C46.9962 40.864 47.6118 40.6429 48.25 40.6429H51.8096C53.8288 40.6429 55.5 38.9822 55.5 36.8422C55.4998 34.8864 53.8519 33.2631 51.707 33.2631H48.25C47.5208 33.2631 46.8214 32.973 46.3057 32.4574C45.7901 31.9418 45.5001 31.2422 45.5 30.5131V20.8578C45.5 20.2326 45.2516 19.6329 44.8096 19.1908C44.3675 18.7487 43.7678 18.5004 43.1426 18.5004H33.4873C32.7581 18.5003 32.0586 18.2103 31.543 17.6947C31.0273 17.179 30.7374 16.4796 30.7373 15.7504V12.2924C30.7372 10.209 29.0889 8.53556 27.1143 8.50134C26.6244 8.49277 26.1368 8.58158 25.6816 8.76305C25.2264 8.94458 24.8115 9.21458 24.4619 9.55798C24.1123 9.9014 23.8342 10.3112 23.6445 10.7631C23.4549 11.215 23.3575 11.7007 23.3574 12.1908V15.7504ZM35.7373 13.5004H43.1426C45.0937 13.5004 46.965 14.2751 48.3447 15.6547C49.7245 17.0345 50.5 18.9064 50.5 20.8578V28.2631H51.707C56.3469 28.2631 60.4998 31.8658 60.5 36.8422C60.5 41.6346 56.6979 45.6429 51.8096 45.6429H50.5V53.1429C50.4999 55.0941 49.7244 56.9654 48.3447 58.3451C46.965 59.7248 45.0938 60.5003 43.1426 60.5004H34.25C33.5207 60.5004 32.8214 60.2103 32.3057 59.6947C31.79 59.179 31.5001 58.4796 31.5 57.7504V54.2865C31.5 52.3266 29.7493 50.5521 27.1836 50.5004H26.9336C24.5517 50.5563 22.5 52.6648 22.5 55.1341V57.7504C22.4999 58.4796 22.21 59.179 21.6943 59.6947C21.1786 60.2103 20.4793 60.5004 19.75 60.5004H10.9453C8.97269 60.4944 7.0824 59.7077 5.6875 58.3129C4.29259 56.9179 3.50595 55.0277 3.5 53.055V44.2504C3.5 43.521 3.78993 42.8208 4.30566 42.305C4.82136 41.7895 5.52082 41.5004 6.25 41.5004H9.71387C11.867 41.5003 13.9104 39.4118 13.875 36.891C13.8414 34.4964 11.8286 32.5004 9.61328 32.5004H6.25C5.52073 32.5004 4.82138 32.2103 4.30566 31.6947C3.79 31.179 3.50008 30.4796 3.5 29.7504V20.9447L3.50977 20.5765C3.60608 18.7382 4.37969 16.9947 5.6875 15.6869C7.08238 14.2922 8.97278 13.5063 10.9453 13.5004H18.3574V12.1898L18.3682 11.7572C18.4185 10.7509 18.6435 9.75956 19.0342 8.82848C19.4807 7.76449 20.1349 6.8002 20.958 5.99157C21.7812 5.1829 22.7572 4.54599 23.8291 4.11852C24.9009 3.69108 26.0474 3.4811 27.2012 3.50134L27.6484 3.52087C32.2403 3.83599 35.7372 7.73783 35.7373 12.2924V13.5004Z" fill="#ECEBE4"/>
</svg>
