<svg width="64" height="64" viewBox="0 0 64 64" fill="none" xmlns="http://www.w3.org/2000/svg">
<g clip-path="url(#clip0_7313_646)">
<mask id="mask0_7313_646" style="mask-type:luminance" maskUnits="userSpaceOnUse" x="0" y="0" width="64" height="64">
<path d="M0 0H64V64H0V0Z" fill="white"/>
</mask>
<g mask="url(#mask0_7313_646)">
<path d="M0.607959 22.3198C0.607959 22.3198 -0.949374 21.1811 0.919959 19.6664L5.27996 15.7251C5.27996 15.7251 6.52529 14.3998 7.84529 15.5544L48.0613 46.3331V61.0904C48.0613 61.0904 48.0426 63.4104 45.1013 63.1544L0.607959 22.3198Z" fill="#2E2C2F"/>
<path d="M10.9761 31.8319L0.608107 41.3573C0.608107 41.3573 -0.458559 42.1573 0.608107 43.5893L5.42144 48.0159C5.42144 48.0159 6.56544 49.2559 8.25344 47.8426L19.2428 39.4213L10.9761 31.8319ZM29.1734 31.9093L48.1868 17.2373L48.0614 2.55725C48.0614 2.55725 47.2481 -0.648081 44.5414 1.02125L19.2428 24.2933L29.1734 31.9093Z" fill="#2E2C2F"/>
<path d="M45.0986 63.1735C46.2026 64.3148 47.5413 63.9415 47.5413 63.9415L62.3573 56.5628C64.2533 55.2561 63.9866 53.6348 63.9866 53.6348V9.56813C63.9866 7.63213 62.0266 6.9628 62.0266 6.9628L49.1839 0.704129C46.3786 -1.04787 44.5413 1.02146 44.5413 1.02146C44.5413 1.02146 46.9039 -0.698537 48.0613 2.55746V60.8241C48.0613 61.2241 47.9759 61.6161 47.8079 61.9708C47.4693 62.6615 46.7359 63.3041 44.9759 63.0375L45.0986 63.1735Z" fill="#2E2C2F"/>
</g>
</g>
<defs>
<clipPath id="clip0_7313_646">
<rect width="64" height="64" fill="white"/>
</clipPath>
</defs>
</svg>
